PathFileType	4	(X/Y/Z)	C:/Users/opensim2020/Desktop/walking_exp_matlab/subject06_walking23_straight_04.trc	
DataRate	CameraRate	NumFrames	NumMarkers	Units	OrigDataRate	OrigDataStartFrame	OrigNumFrames	
100.00	100.00	4	45	mm	100.00	2338	145	
Frame#	Time	LFHD			RFHD			LBHD			RBHD			C7			T10			CLAV			STRN			RBAK			LSHO			LUPA			LELB			LFRM			LWRA			LWRB			LFIN			RSHO			RUPA			RELB			RFRM			RWRA			RWRB			RFIN			LASI			RASI			LPSI			RPSI			LTHI			LKNE			LTIB			LANK			LHEE			LTOE			RTHI			RKNE			RTIB			RANK			RHEE			RTOE			*39			*40			*41			*42			*43			*44			
		X1	Y1	Z1	X2	Y2	Z2	X3	Y3	Z3	X4	Y4	Z4	X5	Y5	Z5	X6	Y6	Z6	X7	Y7	Z7	X8	Y8	Z8	X9	Y9	Z9	X10	Y10	Z10	X11	Y11	Z11	X12	Y12	Z12	X13	Y13	Z13	X14	Y14	Z14	X15	Y15	Z15	X16	Y16	Z16	X17	Y17	Z17	X18	Y18	Z18	X19	Y19	Z19	X20	Y20	Z20	X21	Y21	Z21	X22	Y22	Z22	X23	Y23	Z23	X24	Y24	Z24	X25	Y25	Z25	X26	Y26	Z26	X27	Y27	Z27	X28	Y28	Z28	X29	Y29	Z29	X30	Y30	Z30	X31	Y31	Z31	X32	Y32	Z32	X33	Y33	Z33	X34	Y34	Z34	X35	Y35	Z35	X36	Y36	Z36	X37	Y37	Z37	X38	Y38	Z38	X39	Y39	Z39	X40	Y40	Z40	X41	Y41	Z41	X42	Y42	Z42	X43	Y43	Z43	X44	Y44	Z44	X45	Y45	Z45	

73	0.720	-899.15253	-163.95258	1641.81482	-1031.20972	-163.97272	1635.91541	-900.87225	-32.83625	1582.50256	-1029.65161	-35.08949	1581.30322	-958.10419	-36.92921	1429.43591	-971.48743	-5.51360	1099.23499	-964.45514	-148.47273	1352.30261	-958.96051	-187.01198	1176.60974	-1031.61548	39.91949	1258.64368	-801.56592	-91.58376	1385.80005	-717.14716	-94.30188	1191.09009	-695.24353	-100.38575	1081.65637	-683.80603	-209.74113	986.55524	-742.35144	-325.63544	955.95807	-701.69482	-296.61719	906.53894	-707.67908	-384.74826	892.49701	-1123.39612	-91.21278	1385.70288	-1208.11768	-3.26746	1206.36133	-1228.18469	20.55652	1087.41443	-1253.69434	38.91566	969.80280	-1240.57263	12.20102	817.36444	-1270.95642	70.04602	836.35712	-1279.90710	58.11505	752.56500	-860.14587	-176.71027	937.76782	-1082.24097	-188.82965	948.93622	-899.64398	-19.96244	966.46155	-1068.80774	-34.94719	970.95593	-812.86926	-71.88530	627.47339	-835.57886	-43.10244	464.29315	-846.24237	133.96893	273.61755	-890.43927	238.09180	136.39362	-933.58051	278.57947	150.24463	-907.49219	137.32597	32.44700	-1135.23010	-206.32823	623.53503	-1100.05713	-251.13130	510.61264	-1090.41589	-266.48428	246.22928	-1038.44519	-290.38812	65.30941	-990.90375	-256.78668	42.54416	-1045.35779	-444.27396	37.21052	-956.72809	-62.11985	1678.36218															 
74	0.730	-900.57593	-176.70641	1642.79492	-1032.56763	-176.60097	1636.88904	-902.35126	-45.70766	1583.23706	-1030.89246	-48.00740	1581.75830	-959.54095	-50.70720	1430.42712	-971.61609	-19.40483	1099.79382	-965.64032	-161.90610	1353.15698	-960.06006	-200.73080	1177.57593	-1033.14856	26.17765	1259.36743	-802.78583	-104.81652	1386.56775	-718.72241	-105.81138	1191.80713	-696.88269	-111.24257	1082.17542	-685.28723	-220.54120	986.99377	-743.64636	-336.32813	956.45898	-702.87982	-307.39023	907.01447	-708.79242	-395.92361	893.76715	-1124.70667	-104.96077	1386.29712	-1209.89478	-17.45839	1206.75183	-1229.84302	5.63285	1087.68347	-1255.59546	23.70431	970.01550	-1242.72595	-3.01226	817.69305	-1272.93994	54.97602	836.60162	-1282.37708	42.82524	753.01263	-861.49310	-191.12201	937.86981	-1083.45215	-203.34448	950.48431	-899.28857	-34.76264	966.57745	-1068.32629	-48.76831	972.55182	-813.39667	-88.79631	626.55829	-834.97003	-62.75737	463.06113	-846.36615	120.07382	278.84216	-889.31573	228.51953	144.91849	-932.90466	267.17371	161.06158	-907.78046	136.56670	32.34472	-1136.26965	-220.54324	625.98669	-1100.55371	-266.58069	513.59790	-1091.89856	-277.87616	247.77861	-1038.68958	-292.84720	66.26809	-991.59192	-257.75336	43.14616	-1044.68079	-446.65448	35.33904	-958.01257	-74.70399	1678.95996															 
75	0.740	-901.86810	-189.55112	1643.77490	-1033.88916	-189.33849	1637.84595	-903.51874	-58.64538	1583.86438	-1032.17920	-60.90985	1582.59558	-960.92303	-64.20331	1431.31946	-971.94574	-32.95958	1100.80017	-966.76904	-175.22151	1354.11816	-960.96259	-214.49318	1178.68909	-1034.59570	12.29059	1260.27136	-804.16449	-117.97997	1387.75757	-720.37256	-117.38168	1193.00781	-698.93170	-122.36769	1083.24280	-686.94025	-230.79053	987.19940	-744.86395	-346.54938	956.09521	-704.53094	-317.28012	906.75751	-709.59833	-406.00598	893.71692	-1125.83740	-118.52165	1387.26941	-1211.28552	-32.01044	1207.33411	-1231.35803	-9.48512	1088.21875	-1257.36401	8.31090	970.56805	-1244.89697	-18.97135	818.39941	-1275.01880	39.22052	837.12738	-1284.80786	26.65328	753.66693	-862.96790	-205.28621	938.30957	-1084.42566	-217.57977	952.76721	-899.02332	-49.17742	966.88208	-1067.52393	-62.80832	974.15125	-813.83984	-106.44689	625.83936	-834.33521	-83.71973	462.13531	-846.25061	104.26956	284.54971	-887.93909	217.08586	153.68410	-932.43219	253.16072	172.24529	-907.86621	135.57481	32.40121	-1136.88220	-235.02330	628.76318	-1100.81018	-281.10321	515.58649	-1093.31030	-286.28159	248.10114	-1038.08276	-294.31003	66.40178	-991.80988	-258.22418	43.41586	-1042.51001	-447.92786	34.55667	-959.39771	-87.43177	1679.79810															 
76	0.750	-903.22705	-202.33449	1644.80908	-1035.17712	-202.15057	1638.83997	-904.87335	-71.49402	1584.81995	-1033.90686	-73.11408	1583.56360	-962.25098	-77.27482	1432.15149	-972.27356	-46.49722	1101.79614	-967.78101	-188.60007	1355.23315	-961.76184	-228.10327	1179.82214	-1035.97156	-1.43662	1261.27637	-805.57220	-130.82034	1389.21655	-722.08472	-129.08675	1194.41003	-701.27710	-133.51814	1084.65271	-688.56683	-240.93837	987.27551	-745.89868	-356.41129	954.94690	-705.82654	-326.65244	905.63971	-710.08594	-415.19614	892.33563	-1126.86267	-131.97949	1388.45715	-1212.58521	-46.67886	1208.15735	-1232.82361	-24.85285	1088.98901	-1259.16418	-7.68800	971.37183	-1246.98535	-35.46664	819.21057	-1277.20862	22.75243	837.78076	-1287.23584	9.67696	754.47522	-864.60394	-219.34131	938.96814	-1085.41614	-231.51778	955.40234	-899.02765	-63.32859	967.39948	-1067.44885	-75.72756	976.19617	-814.20026	-125.01807	625.21185	-833.91980	-105.73027	461.33487	-845.80035	86.54509	290.51578	-885.73505	202.93193	162.27455	-930.78540	237.31415	183.30321	-907.11780	132.25017	33.91512	-1137.85010	-249.40471	630.92383	-1100.67310	-294.27017	516.72699	-1092.96594	-292.57645	248.50674	-1037.97070	-295.40842	67.06192	-991.93317	-258.64105	43.84240	-1042.43530	-449.15829	33.66719	-960.76837	-100.25715	1680.76855															 
